<?xml version="1.0" encoding="utf-8"?>
<!-- Generator: Adobe Illustrator 22.0.1, SVG Export Plug-In . SVG Version: 6.00 Build 0)  -->
<svg version="1.1" id="Layer_1" xmlns="http://www.w3.org/2000/svg" xmlns:xlink="http://www.w3.org/1999/xlink" x="0px" y="0px"
	 viewBox="0 0 601.1 93.8" style="enable-background:new 0 0 601.1 93.8;" xml:space="preserve">
<style type="text/css">
	.st0{fill:#FFFFFF;}
</style>
<g>
	<path class="st0" d="M155.1,61.4h14.5c0,5.6,2.8,7.9,7.2,7.9c4.7,0,6.9-2.7,6.9-6.2c0-11.5-27.2-12.9-27.2-34
		c0-10.6,7.4-18.4,20.2-18.4c12.8,0,20.5,7.6,20.5,20.4h-14.5c0-4.6-2.1-6.8-6.2-6.8c-3.7,0-5.9,2-5.9,5.2
		c0,10.9,27.6,11.6,27.6,33.7c0,11.4-8,19.7-21.8,19.7C163.5,83,155.1,75.4,155.1,61.4z"/>
	<path class="st0" d="M232,70.1h-14.7L215,81.6h-14.6l16.7-69.4h15.1l16.7,69.4h-14.6L232,70.1z M229.2,56.7l-1.6-7.9
		c-0.9-5-2.1-13.4-2.8-19h-0.4c-0.7,5.7-1.8,14.1-2.8,19l-1.6,7.9H229.2z"/>
	<path class="st0" d="M274.4,58.3h-5v23.3h-14.1V12.2h20.1c13.8,0,21.9,8.5,21.9,23.1c0,9.4-3.5,16.4-9.6,20l13.1,26.3h-15.4
		L274.4,58.3z M269.4,44.9h5.9c5,0,7.6-3.4,7.6-9.6c0-6.3-2.7-9.7-7.6-9.7h-5.9V44.9z"/>
	<path class="st0" d="M333.2,70.1h-14.7l-2.3,11.5h-14.6l16.7-69.4h15.1l16.7,69.4h-14.6L333.2,70.1z M330.4,56.7l-1.6-7.9
		c-0.9-5-2.1-13.4-2.8-19h-0.4c-0.7,5.7-1.8,14.1-2.8,19l-1.6,7.9H330.4z"/>
	<path class="st0" d="M399.2,12.2v69.4H385V53.3h-14.3v28.3h-14.2V12.2h14.2V40H385V12.2H399.2z"/>
</g>
<g>
	<path class="st0" d="M97.8,69.1c-3.3,0.1-6.2-2.7-6.6-5.8c-0.1-0.9,0-1.8,0.2-2.6c0.1-0.7,0-1.3-0.3-1.9c-0.9-1.7-1.7-3.5-2.6-5.2
		c-0.7-1.3-1.3-2.7-2-4.1c-0.5-1-0.6-1.1-1.6-0.5c-2.7,1.3-5.4,2.7-8.1,4c-6,2.9-12,5.9-18,8.8c-0.1,0-0.2,0.1-0.3,0.1
		c-0.4,0.3-0.7,0.2-0.9-0.3c-1.1-2.2-2.2-4.4-3.2-6.6c-0.7-1.3-1.3-2.7-2-4.1c-0.3-0.7-0.3-0.7,0.4-1.1c3.3-1.6,6.6-3.2,9.8-4.8
		c4.7-2.3,9.5-4.7,14.2-7c0.8-0.4,1.7-0.8,2.5-1.2c0.7-0.4,0.8-0.4,0.4-1.1c-1.6-3.2-3.1-6.4-4.7-9.6c-0.3-0.7-0.7-1.1-1.4-1.4
		c-1.1-0.5-2.1-1.3-2.8-2.3c-1.9-2.7-1.6-7.2,1.8-9.4c1.1-0.7,2.3-1.2,3.5-1.8c5.8-2.9,11.6-5.7,17.4-8.6c1.3-0.6,2.5-1.2,3.8-1.8
		c2.4-1.1,4.8-0.8,6.8,0.8c2.1,1.7,3,3.9,2.4,6.6c-0.2,0.9-0.1,1.6,0.3,2.4c1.3,2.6,2.6,5.3,3.9,7.9c1.4,2.8,2.8,5.7,4.2,8.5
		c2,4.1,4.1,8.3,6.1,12.4c0.6,1.3,1.2,2.5,1.8,3.8c0.2,0.4,0.5,0.7,0.9,0.9c1,0.5,1.9,1.1,2.6,1.9c2.2,2.2,2.4,7-0.6,9.4
		c-0.8,0.6-1.6,1.1-2.5,1.5c-3,1.5-6.1,3-9.1,4.5c-4.1,2-8.2,4-12.3,6c-0.7,0.3-1.3,0.7-2,1C99.3,68.9,98.5,68.9,97.8,69.1z
		 M118.6,44.6c-0.2-0.4-0.3-0.8-0.5-1.2c-3.1-6.3-6.1-12.6-9.2-18.8c-1.8-3.6-3.6-7.3-5.4-10.9c-0.3-0.7-0.3-0.7-1-0.3
		c-1.7,0.8-3.4,1.7-5.1,2.5c-4.7,2.3-9.3,4.5-14,6.8c-1.2,0.6-2.3,1.2-3.5,1.7c-0.5,0.2-0.5,0.4-0.3,0.9c0.1,0.2,0.2,0.4,0.3,0.6
		c1.4,2.8,2.8,5.6,4.1,8.3c2.7,5.5,5.4,11.1,8.1,16.6c0.8,1.7,1.6,3.3,2.4,5c0.2,0.5,0.4,0.6,0.8,0.3c0.1,0,0.1-0.1,0.2-0.1
		c4.4-2.1,8.8-4.3,13.2-6.4c2.8-1.3,5.5-2.7,8.3-4c0.4-0.2,0.8-0.4,1.2-0.6C118.4,44.9,118.5,44.8,118.6,44.6z M98.1,64.6
		c0.3-0.1,0.7-0.2,1.1-0.5c2.4-1.2,4.8-2.4,7.2-3.5c4.6-2.2,9.1-4.4,13.7-6.7c0.9-0.5,1.9-0.9,2.8-1.5c1.4-0.9,1.3-2.8-0.1-3.6
		c-0.5-0.3-1-0.7-1.7-0.3c-8.1,4-16.1,8-24.2,11.9c-0.9,0.4-1.2,1.1-1.2,1.9C95.6,63.6,96.6,64.6,98.1,64.6z M102.4,7.3
		c0.2-1.6-1.5-3-3-2.3c-0.2,0.1-0.4,0.2-0.6,0.3c-3.1,1.5-6.2,3.1-9.4,4.6c-2.9,1.4-5.8,2.9-8.7,4.3c-1.7,0.8-3.3,1.6-5,2.4
		c-0.9,0.4-1.5,1-1.5,2.1c0,1,0.5,1.6,1.3,2c0.6,0.3,1,0.4,1.6,0.1c1.9-1,3.9-1.9,5.8-2.8c6.1-3,12.2-6,18.3-9
		C102,8.6,102.5,8.1,102.4,7.3z M82,40.7c-0.2,0.1-0.4,0.2-0.5,0.2c-1.4,0.7-2.8,1.3-4.1,2c-3.2,1.6-6.4,3.2-9.6,4.7
		c-2.9,1.4-5.7,2.8-8.6,4.2c-0.1,0.1-0.2,0.1-0.4,0.2c-0.3,0.1-0.3,0.3-0.2,0.6c0.5,1,1,2,1.5,3c0.2,0.4,0.5,0.4,0.8,0.2
		c0.2-0.1,0.4-0.2,0.6-0.3c6.6-3.2,13.2-6.5,19.8-9.7c0.8-0.4,1.5-0.8,2.3-1.1c0.3-0.2,0.5-0.4,0.4-0.7c-0.5-1-1-2-1.5-3
		C82.3,40.9,82.1,40.8,82,40.7z"/>
	<path class="st0" d="M9.3,87.6c-4.4-0.2-8-3.2-8.8-7.5c-0.7-3.7,1.7-7.8,4.9-9.4c4.5-2.2,9-4.4,13.4-6.6c3.6-1.8,7.2-3.6,10.8-5.3
		c5.6-2.7,11.2-5.5,16.7-8.2c0.8-0.4,0.8-0.4,1.1,0.3c1.6,3.3,3.2,6.6,4.9,9.9c0.7,1.5,1.5,3.1,2.2,4.6c0.3,0.7,0.3,0.7-0.3,1
		c-5.7,2.8-11.5,5.6-17.2,8.4c-3.1,1.5-6.2,3.1-9.3,4.6c-4,1.9-8,3.9-12,5.8c-1,0.5-1.9,1-2.8,1.4C11.8,87.3,10.5,87.6,9.3,87.6z"/>
	<path class="st0" d="M103.7,94c-10.6,0-21.2,0-31.7,0c-1.4,0-1.3,0.1-1.3-1.3c0-1.5,0-3,0-4.5c0-0.2,0-0.5,0-0.7
		c0.2-1.3,0-1.1,1.2-1.1c0.8,0,1.6,0,2.5,0c0.5,0,0.7-0.2,0.7-0.7c0-1.2,0-2.5,0-3.7c0-1.7,0.5-3.3,1.6-4.6c1.3-1.4,2.8-2.2,4.7-2.3
		c2.1,0,4.2,0,6.2,0c12.7,0,25.4,0,38.1,0c3.7,0,6.8,2.8,6.8,6.9c0,1.2,0,2.5,0,3.7c0,0.7,0,0.7,0.7,0.7c0.9,0,1.8,0,2.8,0
		c0.8,0,0.8,0,0.8,0.8c0,2,0,4,0,6c0,0.8,0,0.8-0.8,0.8c-2.8,0-5.5,0-8.3,0C119.7,94,111.7,94,103.7,94z M103.6,83.9
		c7.5,0,15.1,0,22.6,0c0.5,0,1.1-0.1,1.6-0.1c0.1-0.6,0.1-1.1,0.2-1.7c0-0.1,0-0.2,0-0.3c0-1-0.6-1.9-1.5-2.2
		c-0.6-0.1-1.2-0.2-1.8-0.2c-14,0-27.9,0-41.9,0c-0.5,0-1,0.1-1.5,0.1c-1.1,0.2-1.8,1-1.9,2.1c0,0.4,0,0.8,0,1.2c0,1,0,1,1,1
		c0.1,0,0.3,0,0.4,0C88.4,83.9,96,83.9,103.6,83.9z"/>
</g>
</svg>
