<?xml version="1.0" encoding="utf-8"?>
<!-- Generator: Adobe Illustrator 22.0.1, SVG Export Plug-In . SVG Version: 6.00 Build 0)  -->
<svg version="1.1" id="Layer_1" xmlns="http://www.w3.org/2000/svg" xmlns:xlink="http://www.w3.org/1999/xlink" x="0px" y="0px"
	 viewBox="0 0 73.3 93.8" style="enable-background:new 0 0 73.3 93.8;" xml:space="preserve">
<style type="text/css">
	.st0{fill:#FFFFFF;}
</style>
<g>
	<path class="st0" d="M52.4,58.7c-1.8,0-3.3-1.4-3.5-3.1c-0.1-0.5,0-1,0.1-1.4c0.1-0.4,0-0.7-0.1-1c-0.5-0.9-0.9-1.9-1.4-2.8
		c-0.4-0.7-0.7-1.5-1.1-2.2c-0.3-0.5-0.3-0.6-0.9-0.3c-1.4,0.7-2.9,1.4-4.3,2.1c-3.2,1.6-6.5,3.2-9.7,4.7c0,0-0.1,0-0.1,0.1
		c-0.2,0.1-0.4,0.1-0.5-0.1c-0.6-1.2-1.2-2.4-1.7-3.6c-0.4-0.7-0.7-1.4-1.1-2.2c-0.2-0.4-0.2-0.4,0.2-0.6c1.8-0.9,3.5-1.7,5.3-2.6
		c2.6-1.3,5.1-2.5,7.7-3.8c0.4-0.2,0.9-0.4,1.3-0.6c0.4-0.2,0.4-0.2,0.2-0.6c-0.8-1.7-1.7-3.4-2.5-5.1c-0.2-0.4-0.4-0.6-0.7-0.8
		c-0.6-0.3-1.1-0.7-1.5-1.2c-1-1.5-0.9-3.9,1-5c0.6-0.4,1.2-0.6,1.9-0.9c3.1-1.5,6.2-3.1,9.4-4.6c0.7-0.3,1.3-0.7,2-1
		c1.3-0.6,2.6-0.4,3.7,0.4c1.1,0.9,1.6,2.1,1.3,3.6c-0.1,0.5-0.1,0.9,0.2,1.3c0.7,1.4,1.4,2.8,2.1,4.2c0.8,1.5,1.5,3.1,2.3,4.6
		c1.1,2.2,2.2,4.4,3.3,6.7c0.3,0.7,0.7,1.4,1,2c0.1,0.2,0.3,0.4,0.5,0.5c0.5,0.3,1,0.6,1.4,1c1.2,1.2,1.3,3.8-0.3,5.1
		c-0.4,0.3-0.9,0.6-1.4,0.8c-1.6,0.8-3.3,1.6-4.9,2.4c-2.2,1.1-4.4,2.1-6.6,3.2c-0.4,0.2-0.7,0.4-1.1,0.5
		C53.2,58.6,52.7,58.6,52.4,58.7z M63.5,45.5c-0.1-0.2-0.2-0.4-0.3-0.6c-1.7-3.4-3.3-6.8-5-10.1c-1-2-1.9-3.9-2.9-5.9
		c-0.2-0.3-0.2-0.4-0.5-0.2c-0.9,0.4-1.8,0.9-2.8,1.4c-2.5,1.2-5,2.4-7.5,3.7c-0.6,0.3-1.2,0.6-1.9,0.9c-0.2,0.1-0.3,0.2-0.2,0.5
		c0.1,0.1,0.1,0.2,0.2,0.3c0.7,1.5,1.5,3,2.2,4.5c1.5,3,2.9,6,4.4,8.9c0.4,0.9,0.9,1.8,1.3,2.7c0.1,0.2,0.2,0.3,0.5,0.2
		c0,0,0.1,0,0.1,0c2.4-1.1,4.7-2.3,7.1-3.4c1.5-0.7,3-1.4,4.4-2.2c0.2-0.1,0.4-0.2,0.6-0.3C63.4,45.7,63.5,45.6,63.5,45.5z
		 M52.5,56.3c0.1-0.1,0.4-0.1,0.6-0.2c1.3-0.6,2.6-1.3,3.8-1.9c2.5-1.2,4.9-2.4,7.4-3.6c0.5-0.2,1-0.5,1.5-0.8
		c0.7-0.5,0.7-1.5-0.1-2c-0.3-0.2-0.5-0.4-0.9-0.2c-4.3,2.1-8.7,4.3-13,6.4c-0.5,0.2-0.6,0.6-0.6,1C51.2,55.7,51.7,56.3,52.5,56.3z
		 M54.8,25.5c0.1-0.9-0.8-1.6-1.6-1.2c-0.1,0-0.2,0.1-0.3,0.1c-1.7,0.8-3.4,1.6-5,2.5c-1.6,0.8-3.1,1.5-4.7,2.3
		c-0.9,0.4-1.8,0.9-2.7,1.3c-0.5,0.2-0.8,0.6-0.8,1.1c0,0.5,0.3,0.8,0.7,1.1c0.3,0.2,0.5,0.2,0.9,0c1-0.5,2.1-1,3.1-1.5
		c3.3-1.6,6.5-3.2,9.8-4.8C54.6,26.2,54.9,25.9,54.8,25.5z M43.8,43.4c-0.1,0.1-0.2,0.1-0.3,0.1c-0.7,0.4-1.5,0.7-2.2,1.1
		c-1.7,0.8-3.4,1.7-5.2,2.5c-1.5,0.8-3.1,1.5-4.6,2.3c-0.1,0-0.1,0.1-0.2,0.1c-0.1,0.1-0.2,0.2-0.1,0.3c0.3,0.5,0.5,1.1,0.8,1.6
		c0.1,0.2,0.3,0.2,0.5,0.1c0.1-0.1,0.2-0.1,0.3-0.1c3.6-1.7,7.1-3.5,10.7-5.2c0.4-0.2,0.8-0.4,1.2-0.6c0.2-0.1,0.3-0.2,0.2-0.4
		c-0.3-0.5-0.5-1.1-0.8-1.6C44,43.5,43.9,43.5,43.8,43.4z"/>
	<path class="st0" d="M4.8,68.6c-2.4-0.1-4.3-1.7-4.7-4c-0.4-2,0.9-4.2,2.6-5c2.4-1.2,4.8-2.3,7.2-3.5c1.9-1,3.9-1.9,5.8-2.9
		c3-1.5,6-2.9,9-4.4c0.4-0.2,0.4-0.2,0.6,0.2c0.9,1.8,1.7,3.6,2.6,5.3c0.4,0.8,0.8,1.6,1.2,2.5c0.2,0.4,0.2,0.4-0.2,0.5
		c-3.1,1.5-6.2,3-9.2,4.5c-1.7,0.8-3.3,1.6-5,2.5c-2.1,1-4.3,2.1-6.4,3.1c-0.5,0.2-1,0.5-1.5,0.8C6.1,68.4,5.4,68.6,4.8,68.6z"/>
	<path class="st0" d="M55.5,72.1c-5.7,0-11.4,0-17.1,0c-0.7,0-0.7,0.1-0.7-0.7c0-0.8,0-1.6,0-2.4c0-0.1,0-0.3,0-0.4
		c0.1-0.7,0-0.6,0.6-0.6c0.4,0,0.9,0,1.3,0c0.3,0,0.4-0.1,0.4-0.4c0-0.7,0-1.3,0-2c0-0.9,0.3-1.8,0.9-2.5c0.7-0.8,1.5-1.2,2.5-1.2
		c1.1,0,2.2,0,3.4,0c6.8,0,13.6,0,20.5,0c2,0,3.7,1.5,3.7,3.7c0,0.7,0,1.3,0,2c0,0.4,0,0.4,0.4,0.4c0.5,0,1,0,1.5,0
		c0.4,0,0.4,0,0.5,0.4c0,1.1,0,2.2,0,3.2c0,0.4,0,0.4-0.4,0.4c-1.5,0-3,0-4.5,0C64.1,72.1,59.8,72.1,55.5,72.1z M55.5,66.6
		c4.1,0,8.1,0,12.2,0c0.3,0,0.6,0,0.9,0c0-0.3,0.1-0.6,0.1-0.9c0-0.1,0-0.1,0-0.2c0-0.5-0.3-1-0.8-1.2c-0.3-0.1-0.7-0.1-1-0.1
		c-7.5,0-15,0-22.5,0c-0.3,0-0.5,0-0.8,0.1c-0.6,0.1-1,0.5-1,1.1c0,0.2,0,0.4,0,0.7c0,0.5,0,0.5,0.6,0.5c0.1,0,0.1,0,0.2,0
		C47.3,66.6,51.4,66.6,55.5,66.6z"/>
</g>
</svg>
